<svg width="40" height="40" viewBox="0 0 40 40" fill="none" xmlns="http://www.w3.org/2000/svg">
<rect width="40" height="40" rx="20" fill="#04709B"/>
<path d="M12.0309 27.059C13.1643 26.218 14.3989 25.5539 15.7348 25.0667C17.0707 24.5795 18.4924 24.3359 20.0001 24.3359C21.5078 24.3359 22.9296 24.5795 24.2655 25.0667C25.6014 25.5539 26.836 26.218 27.9693 27.059C28.7984 26.1479 29.4552 25.0932 29.9399 23.8949C30.4245 22.6966 30.6668 21.3991 30.6668 20.0026C30.6668 17.047 29.6279 14.5303 27.5501 12.4526C25.4724 10.3748 22.9557 9.33591 20.0001 9.33591C17.0446 9.33591 14.5279 10.3748 12.4501 12.4526C10.3724 14.5303 9.33346 17.047 9.33346 20.0026C9.33346 21.3991 9.57577 22.6966 10.0604 23.8949C10.545 25.0932 11.2019 26.1479 12.0309 27.059ZM20.0005 21.0025C18.7832 21.0025 17.7566 20.5847 16.9207 19.7491C16.0848 18.9135 15.6668 17.887 15.6668 16.6696C15.6668 15.4523 16.0846 14.4257 16.9203 13.5898C17.7559 12.7539 18.7824 12.3359 19.9997 12.3359C21.2171 12.3359 22.2437 12.7537 23.0796 13.5894C23.9155 14.425 24.3334 15.4515 24.3334 16.6688C24.3334 17.8862 23.9156 18.9128 23.08 19.7487C22.2444 20.5846 21.2179 21.0025 20.0005 21.0025ZM20.0001 32.6692C18.2412 32.6692 16.5912 32.3384 15.0502 31.6769C13.5091 31.0153 12.1685 30.1145 11.0284 28.9743C9.88821 27.8342 8.98736 26.4936 8.32583 24.9525C7.66427 23.4115 7.3335 21.7615 7.3335 20.0026C7.3335 18.2436 7.66427 16.5936 8.32583 15.0526C8.98736 13.5116 9.88821 12.171 11.0284 11.0308C12.1685 9.89065 13.5091 8.9898 15.0502 8.32827C16.5912 7.66672 18.2412 7.33594 20.0001 7.33594C21.7591 7.33594 23.4091 7.66672 24.9501 8.32827C26.4911 8.9898 27.8317 9.89065 28.9719 11.0308C30.1121 12.171 31.0129 13.5116 31.6744 15.0526C32.336 16.5936 32.6668 18.2436 32.6668 20.0026C32.6668 21.7615 32.336 23.4115 31.6744 24.9525C31.0129 26.4936 30.1121 27.8342 28.9719 28.9743C27.8317 30.1145 26.4911 31.0153 24.9501 31.6769C23.4091 32.3384 21.7591 32.6692 20.0001 32.6692ZM20.0001 30.6692C21.2036 30.6692 22.3638 30.4757 23.4809 30.0885C24.598 29.7013 25.5899 29.1598 26.4566 28.4641C25.5899 27.794 24.6108 27.2718 23.5194 26.8974C22.4279 26.5231 21.2548 26.3359 20.0001 26.3359C18.7454 26.3359 17.5702 26.5209 16.4745 26.891C15.3787 27.2611 14.4018 27.7855 13.5437 28.4641C14.4104 29.1598 15.4023 29.7013 16.5194 30.0885C17.6365 30.4757 18.7967 30.6692 20.0001 30.6692ZM20.0001 19.0026C20.6634 19.0026 21.2181 18.7795 21.6643 18.3334C22.1104 17.8872 22.3335 17.3325 22.3335 16.6692C22.3335 16.006 22.1104 15.4513 21.6643 15.0051C21.2181 14.5589 20.6634 14.3359 20.0001 14.3359C19.3369 14.3359 18.7822 14.5589 18.336 15.0051C17.8898 15.4513 17.6668 16.006 17.6668 16.6692C17.6668 17.3325 17.8898 17.8872 18.336 18.3334C18.7822 18.7795 19.3369 19.0026 20.0001 19.0026Z" fill="white"/>
</svg>
