<svg width="28" height="28" viewBox="0 0 28 28" fill="none" xmlns="http://www.w3.org/2000/svg">
<mask id="mask0_16431_56969" style="mask-type:alpha" maskUnits="userSpaceOnUse" x="0" y="0" width="28" height="28">
<rect width="28" height="28" fill="#D9D9D9"/>
</mask>
<g mask="url(#mask0_16431_56969)">
<path d="M7.80762 26.2474V17.3921L3.91504 11.0807L8.95183 2.91406H19.0482L24.085 11.0807L20.1924 17.3921V26.2474L14 24.1497L7.80762 26.2474ZM9.55762 23.7726L14 22.2941L18.4424 23.7726V19.2474H9.55762V23.7726ZM9.92775 4.66406L5.96108 11.0807L9.92775 17.4974H18.0722L22.0389 11.0807L18.0722 4.66406H9.92775ZM12.775 15.4199L9.04837 11.7224L10.2958 10.4749L12.775 12.9541L17.7042 7.99577L18.9516 9.21406L12.775 15.4199Z" fill="#004A68"/>
</g>
</svg>
