<svg width="29" height="29" viewBox="0 0 29 29" fill="none" xmlns="http://www.w3.org/2000/svg">
    <g id="Icons">
    <mask id="mask0_18082_2914" style="mask-type:alpha" maskUnits="userSpaceOnUse" x="0" y="0" width="29" height="29">
    <rect id="Bounding box" x="0.5" y="0.828125" width="28" height="28" fill="#D9D9D9"/>
    </mask>
    <g mask="url(#mask0_18082_2914)">
    <path id="open_in_new" d="M6.69224 24.7473C6.10291 24.7473 5.60409 24.5432 5.19575 24.1348C4.78742 23.7265 4.58325 23.2277 4.58325 22.6384V7.02305C4.58325 6.43373 4.78742 5.9349 5.19575 5.52656C5.60409 5.11823 6.10291 4.91406 6.69224 4.91406H14.0511V6.66403H6.69224C6.60248 6.66403 6.5202 6.70143 6.4454 6.77621C6.37061 6.85101 6.33322 6.93329 6.33322 7.02305V22.6384C6.33322 22.7281 6.37061 22.8104 6.4454 22.8852C6.5202 22.96 6.60248 22.9974 6.69224 22.9974H22.3075C22.3973 22.9974 22.4796 22.96 22.5544 22.8852C22.6292 22.8104 22.6666 22.7281 22.6666 22.6384V15.2795H24.4165V22.6384C24.4165 23.2277 24.2124 23.7265 23.804 24.1348C23.3957 24.5432 22.8969 24.7473 22.3075 24.7473H6.69224ZM11.839 18.7211L10.6095 17.4916L21.4371 6.66403H16.8332V4.91406H24.4165V12.4974H22.6666V7.8935L11.839 18.7211Z" fill="white"/>
    </g>
    </g>
</svg>
