<svg width="24" height="24" viewBox="0 0 24 24" fill="none" xmlns="http://www.w3.org/2000/svg">
<path d="M2.40381 7.05767L12.0002 11.8553L21.5966 7.05767C21.5611 6.44621 21.2931 5.87146 20.8476 5.45115C20.4021 5.03083 19.8127 4.79676 19.2002 4.79688H4.80021C4.18771 4.79676 3.59835 5.03083 3.15282 5.45115C2.7073 5.87146 2.43933 6.44621 2.40381 7.05767Z" fill="#004A68"/>
<path d="M21.5999 9.74219L11.9999 14.5422L2.3999 9.74219V16.8006C2.3999 17.4371 2.65276 18.0476 3.10285 18.4976C3.55293 18.9477 4.16338 19.2006 4.7999 19.2006H19.1999C19.8364 19.2006 20.4469 18.9477 20.897 18.4976C21.347 18.0476 21.5999 17.4371 21.5999 16.8006V9.74219Z" fill="#004A68"/>
</svg>
