<svg width="157" height="40" viewBox="0 0 157 40" fill="none" xmlns="http://www.w3.org/2000/svg">
<path d="M156.568 15.0512V10.4134C154.875 10.3404 153.473 10.7384 152.364 11.6099C151.252 12.4791 150.395 13.638 149.792 15.0889V10.7761H145.371V29.9093H149.792V22.6263C149.792 21.3709 149.95 20.2662 150.263 19.3099C150.574 18.3559 151.024 17.5645 151.603 16.9379C152.182 16.309 152.873 15.8379 153.669 15.5223C154.467 15.209 155.346 15.0512 156.314 15.0512H156.568ZM136.243 0.00235543C136.243 0.00235543 129.389 2.4473 115.659 19.4959C115.659 19.4959 109.516 15.5317 105.314 15.5317C105.314 15.5317 112.154 22.3601 115.659 31.0258C115.659 31.0258 127.705 6.98622 136.243 0M130.164 19.0037C130.359 17.5056 130.894 16.2902 131.777 15.3621C132.658 14.4318 133.777 13.9677 135.129 13.9677C135.855 13.9677 136.498 14.0996 137.07 14.3658C137.635 14.632 138.123 14.9876 138.537 15.4352C138.947 15.8827 139.275 16.4127 139.515 17.0298C139.755 17.6469 139.911 18.3041 139.986 19.0037H130.164ZM142.035 13.4566C141.272 12.5144 140.318 11.7654 139.171 11.2095C138.022 10.656 136.688 10.378 135.167 10.378C133.789 10.378 132.533 10.6395 131.4 11.1553C130.263 11.6759 129.278 12.3849 128.447 13.2917C127.613 14.1986 126.965 15.2562 126.508 16.4621C126.049 17.6705 125.82 18.9636 125.82 20.3415V20.4122C125.82 21.8867 126.072 23.234 126.581 24.4518C127.085 25.6719 127.783 26.7177 128.663 27.5869C129.547 28.4584 130.583 29.132 131.78 29.6149C132.976 30.0977 134.262 30.338 135.64 30.338C137.402 30.338 138.919 30.013 140.186 29.3605C141.456 28.708 142.546 27.8365 143.467 26.7507L140.895 24.4706C140.123 25.2196 139.336 25.7873 138.542 26.1736C137.744 26.5575 136.801 26.7507 135.716 26.7507C134.288 26.7507 133.075 26.3338 132.072 25.4999C131.068 24.6661 130.447 23.4648 130.206 21.8938H144.264C144.287 21.6771 144.308 21.4651 144.318 21.2602C144.329 21.0552 144.337 20.855 144.337 20.6619C144.337 19.2863 144.143 17.9743 143.757 16.7307C143.371 15.487 142.796 14.3917 142.038 13.4495M83.9432 17.8236C83.2648 17.2324 82.4121 16.7307 81.3852 16.3208C80.3535 15.9086 79.1734 15.5341 77.8403 15.1973C76.6296 14.9075 75.6309 14.6296 74.8441 14.3634C74.0574 14.0973 73.4403 13.8146 72.9904 13.5108C72.5429 13.2116 72.2343 12.8725 72.0624 12.4979C71.8928 12.1234 71.808 11.6971 71.808 11.2095V11.1389C71.808 10.2933 72.1707 9.57955 72.8962 9.00247C73.6193 8.42068 74.6345 8.13096 75.9371 8.13096C77.0983 8.13096 78.2454 8.35473 79.3807 8.7999C80.516 9.24744 81.6631 9.89283 82.8267 10.7384L85.2151 7.3678C83.9102 6.32905 82.5181 5.53763 81.0319 4.99588C79.5456 4.45413 77.8732 4.17854 76.0124 4.17854C74.7546 4.17854 73.5981 4.35991 72.5382 4.72265C71.4782 5.08538 70.569 5.58709 69.8129 6.22777C69.0592 6.86609 68.4656 7.64103 68.0346 8.54787C67.6035 9.45236 67.3892 10.4487 67.3892 11.5369V11.6099C67.3892 12.7712 67.5753 13.7605 67.9521 14.5801C68.3266 15.4022 68.8731 16.0994 69.5892 16.6647C70.3029 17.2324 71.1885 17.7152 72.239 18.1133C73.2919 18.5114 74.4979 18.8694 75.857 19.1803C77.0418 19.4465 78.0051 19.7126 78.7447 19.9788C79.482 20.245 80.0661 20.5347 80.4878 20.848C80.9094 21.1636 81.2038 21.4957 81.3593 21.8443C81.5171 22.1953 81.5948 22.6004 81.5948 23.0621V23.1327C81.5948 24.0985 81.192 24.871 80.3794 25.4505C79.5715 26.0323 78.4762 26.322 77.103 26.322C75.5084 26.322 74.081 26.0393 72.8255 25.4717C71.6219 24.9276 70.35 24.4989 68.5316 23.0738C67.8297 22.5227 67.05 21.6865 66.3599 20.8692V26.1807C66.4329 26.2443 66.5035 26.3008 66.5624 26.3479C67.6271 27.177 69.648 28.6327 71.3769 29.2757C73.1647 29.9399 75.0396 30.272 76.9947 30.272C78.3231 30.272 79.5409 30.1048 80.6526 29.768C81.7597 29.4288 82.7089 28.9318 83.5004 28.2817C84.2918 27.6293 84.9066 26.8308 85.3494 25.8909C85.7922 24.9488 86.016 23.8865 86.016 22.704V22.631C86.016 21.5923 85.8393 20.6807 85.4883 19.8964C85.1374 19.112 84.6239 18.4219 83.9432 17.8283M98.3349 25.9051C97.8756 26.2537 97.3362 26.5293 96.7238 26.7224C96.1067 26.9156 95.4353 27.0121 94.7099 27.0121C93.6711 27.0121 92.7949 26.7695 92.0812 26.2867C91.3699 25.8038 91.0118 25.1042 91.0118 24.188V24.1149C91.0118 23.1963 91.3981 22.4732 92.1731 21.9432C92.9457 21.4086 94.0197 21.1424 95.3953 21.1424C96.2409 21.1424 97.0441 21.2154 97.8026 21.3614C98.5657 21.5051 99.2252 21.6888 99.7811 21.9055V22.9938C99.7811 23.5967 99.6539 24.1479 99.3972 24.6426C99.1452 25.1372 98.7871 25.5612 98.3302 25.9098M99.6751 27.5562V29.9117H104.023V18.5703C104.023 16.0075 103.335 14.0219 101.958 12.611C100.58 11.1954 98.4668 10.4888 95.6167 10.4888C94.0456 10.4888 92.703 10.6324 91.5936 10.9222C90.4819 11.2119 89.396 11.6005 88.3337 12.0834L89.5279 15.5977C90.3971 15.235 91.2545 14.9452 92.1001 14.7285C92.9457 14.5095 93.909 14.3988 94.9996 14.3988C96.5212 14.3988 97.6871 14.7497 98.4951 15.4517C99.303 16.1536 99.7105 17.1688 99.7105 18.4949V18.8576C98.9591 18.615 98.1794 18.4219 97.3739 18.2782C96.5636 18.1321 95.579 18.0591 94.4202 18.0591C93.2613 18.0591 92.2744 18.1863 91.3228 18.4407C90.3688 18.6951 89.5468 19.0814 88.859 19.5996C88.1688 20.1201 87.6294 20.7726 87.2432 21.5569C86.8592 22.3437 86.6637 23.267 86.6637 24.3293V24.4023C86.6637 25.3657 86.8498 26.2183 87.2243 26.9556C87.5965 27.6952 88.0958 28.31 88.7106 28.8046C89.3277 29.2993 90.0461 29.6738 90.8682 29.9282C91.6879 30.1802 92.557 30.3074 93.4756 30.3074C94.9242 30.3074 96.1561 30.0412 97.1737 29.5089C98.1889 28.9766 99.0227 28.3265 99.6751 27.5539" fill="white"/>
<path d="M17.5315 17.8224C16.8531 17.2312 16.0005 16.7294 14.9711 16.3196C13.9418 15.9074 12.7594 15.5329 11.4286 15.1961C10.2179 14.9063 9.21917 14.6284 8.43246 14.3622C7.64574 14.0961 7.02862 13.8134 6.57873 13.5096C6.1312 13.2104 5.82264 12.8712 5.65069 12.4967C5.4811 12.1222 5.39866 11.6959 5.39866 11.2083V11.1376C5.39866 10.292 5.76139 9.57834 6.48451 9.00126C7.20999 8.41947 8.22518 8.13211 9.52773 8.13211C10.689 8.13211 11.8361 8.35587 12.969 8.80105C14.1067 9.24858 15.2538 9.89397 16.4103 10.7396L18.8011 7.36895C17.4985 6.3302 16.1018 5.53877 14.6155 4.99702C13.1292 4.45527 11.4568 4.17969 9.5984 4.17969C8.34295 4.17969 7.18172 4.36106 6.12413 4.72379C5.06183 5.08653 4.15499 5.58824 3.39889 6.22892C2.64515 6.86724 2.05158 7.64218 1.61818 8.54902C1.18714 9.45351 0.972795 10.4499 0.972795 11.5381V11.6111C0.972795 12.7723 1.16123 13.7616 1.53574 14.5813C1.91026 15.4033 2.45672 16.1005 3.17042 16.6682C3.88411 17.2359 4.76976 17.7187 5.82263 18.1168C6.87551 18.5149 8.0815 18.8729 9.43823 19.1838C10.6254 19.45 11.5864 19.7185 12.326 19.9823C13.0632 20.2485 13.645 20.5382 14.069 20.8515C14.493 21.1671 14.7827 21.4992 14.9405 21.8478C15.0983 22.1988 15.1784 22.6039 15.1784 23.0656V23.1362C15.1784 24.102 14.7733 24.8745 13.963 25.454C13.1551 26.0358 12.0622 26.3231 10.6843 26.3231C9.08962 26.3231 7.66459 26.0405 6.40678 25.4728C5.15134 24.9052 3.90767 24.0902 2.67342 23.0232L0 26.2101C1.52161 27.588 3.17513 28.6103 4.9629 29.2745C6.75068 29.9387 8.62325 30.2708 10.5806 30.2708C11.9091 30.2708 13.1292 30.1036 14.2386 29.7668C15.348 29.4276 16.2973 28.9306 17.0887 28.2805C17.8778 27.628 18.4949 26.8296 18.9401 25.8897C19.3829 24.9476 19.6066 23.8853 19.6066 22.7028V22.6298C19.6066 21.5911 19.43 20.6795 19.079 19.8951C18.7281 19.1108 18.2146 18.4206 17.5339 17.8271" fill="white"/>
<path d="M25.7566 10.7734H21.3354V29.9066H25.7566V10.7734Z" fill="white"/>
<path d="M37.6327 10.375C36.886 10.375 36.2171 10.4645 35.6282 10.6482C35.0393 10.832 34.4976 11.0816 34.0006 11.3996C33.506 11.7152 33.0726 12.0756 32.698 12.476C32.3259 12.8765 31.982 13.3099 31.6687 13.7715V10.7731H27.2476V29.9063H31.6687V19.1325C31.6687 17.6392 32.0644 16.4756 32.8535 15.6441C33.6449 14.8126 34.6742 14.3957 35.9438 14.3957C37.2134 14.3957 38.2357 14.8009 38.9423 15.6088C39.6489 16.4143 40.0022 17.5661 40.0022 19.0618V29.9086H44.4234V17.7334C44.4234 15.4863 43.8322 13.6985 42.6521 12.3724C41.472 11.0416 39.7973 10.3774 37.6303 10.3774" fill="white"/>
<path d="M61.194 19.434C61.194 20.2089 61.0409 20.9156 60.7394 21.5539C60.4379 22.1946 60.0327 22.7505 59.5263 23.2215C59.0199 23.6926 58.4216 24.0554 57.7315 24.3074C57.0437 24.5618 56.3229 24.689 55.5762 24.689C54.8296 24.689 54.1206 24.5618 53.4564 24.3074C52.7898 24.0554 52.2174 23.6926 51.7345 23.2215C51.2517 22.7505 50.8654 22.1946 50.5757 21.5539C50.2836 20.9156 50.1399 20.1948 50.1399 19.401V19.3257C50.1399 18.5295 50.2789 17.8088 50.5568 17.1704C50.8324 16.5321 51.221 15.9786 51.7157 15.5193C52.2103 15.06 52.7851 14.7043 53.4375 14.4499C54.09 14.1979 54.8037 14.0707 55.5739 14.0707C56.3441 14.0707 57.0413 14.1979 57.7291 14.4499C58.4193 14.7019 59.0175 15.0647 59.524 15.5358C60.0304 16.0068 60.4355 16.5627 60.737 17.2034C61.0385 17.8464 61.1916 18.5625 61.1916 19.3586V19.4316L61.194 19.434ZM61.1209 10.7754V13.6349C60.3719 12.7446 59.4721 11.9743 58.4216 11.3337C57.3711 10.6953 56.0356 10.375 54.415 10.375C53.3056 10.375 52.2245 10.5823 51.1739 10.9898C50.1211 11.402 49.193 11.9861 48.3827 12.7446C47.5725 13.5054 46.9271 14.4499 46.4442 15.5734C45.9614 16.697 45.7188 17.9595 45.7188 19.3586V19.4316C45.7188 20.8331 45.9614 22.0909 46.4442 23.2003C46.9294 24.3121 47.5725 25.2472 48.3827 26.0104C49.1907 26.7712 50.1163 27.3577 51.1551 27.7652C52.1938 28.1774 53.2821 28.3823 54.415 28.3823C55.9837 28.3823 57.3028 28.0549 58.3651 27.4024C59.4274 26.75 60.3578 25.9044 61.1539 24.8656V26.3613C61.1539 28.3022 60.6357 29.7696 59.597 30.7636C58.5582 31.76 57.0602 32.2593 55.1028 32.2593C53.7979 32.2593 52.5896 32.0756 51.4801 31.7152C50.3707 31.3525 49.3037 30.8579 48.2909 30.2313L46.6609 33.5148C49.1718 35.0199 52.0242 35.7737 55.2135 35.7737C56.9518 35.7737 58.4805 35.5617 59.7972 35.1377C61.1139 34.7137 62.2068 34.0683 63.0783 33.1992C64.6965 31.5786 65.5068 29.1761 65.5068 25.9868V10.7754H61.1233H61.1209Z" fill="white"/>
<path d="M25.9029 3.67188H21.1543V7.83864H25.9029V3.67188Z" fill="white"/>
<path d="M122.53 20.4329C123.521 23.2123 122.916 26.4322 120.69 28.6605C119.308 30.0455 117.539 30.7992 115.732 30.9405C115.69 30.9947 115.661 31.03 115.661 31.03C115.65 31.0018 115.633 30.9759 115.624 30.9452C113.44 31.0819 111.212 30.3281 109.544 28.6605C107.205 26.3215 106.649 22.8755 107.87 20.0066C107.264 19.2481 106.763 18.591 106.364 18.0469C104.303 21.6201 104.603 26.1755 107.269 29.4566L105.281 31.4469L104.725 30.8911L97.8354 37.7784L100.059 40.0019L106.949 33.1146L106.393 32.5587L108.352 30.5943C112.319 34.1745 118.441 34.0544 122.261 30.2315C125.564 26.9316 126.091 21.9169 123.868 18.0563C123.413 18.8642 122.968 19.658 122.527 20.4329" fill="white"/>
<path d="M117.616 15.6172C118.062 14.9435 118.599 14.3664 119.147 13.8223C115.772 12.3549 111.766 12.8142 108.793 15.205C109.723 15.4075 110.651 15.6925 111.506 16.0788C113.405 15.099 115.619 14.9482 117.619 15.6172" fill="white"/>
</svg>
