<svg width="157" height="44" viewBox="0 0 157 44" fill="none" xmlns="http://www.w3.org/2000/svg">
<path d="M156.568 18.5512V13.9134C154.875 13.8404 153.473 14.2384 152.364 15.1099C151.252 15.9791 150.395 17.138 149.792 18.5889V14.2761H145.371V33.4093H149.792V26.1263C149.792 24.8709 149.95 23.7662 150.263 22.8099C150.574 21.8559 151.024 21.0645 151.603 20.4379C152.182 19.809 152.873 19.3379 153.669 19.0223C154.467 18.709 155.346 18.5512 156.314 18.5512H156.568ZM136.243 3.50236C136.243 3.50236 129.389 5.9473 115.659 22.9959C115.659 22.9959 109.516 19.0317 105.314 19.0317C105.314 19.0317 112.154 25.8601 115.659 34.5258C115.659 34.5258 127.705 10.4862 136.243 3.5M130.164 22.5037C130.359 21.0056 130.894 19.7902 131.777 18.8621C132.658 17.9318 133.777 17.4677 135.129 17.4677C135.855 17.4677 136.498 17.5996 137.07 17.8658C137.635 18.132 138.123 18.4876 138.537 18.9352C138.947 19.3827 139.275 19.9127 139.515 20.5298C139.755 21.1469 139.911 21.8041 139.986 22.5037H130.164ZM142.035 16.9566C141.272 16.0144 140.318 15.2654 139.171 14.7095C138.022 14.156 136.688 13.878 135.167 13.878C133.789 13.878 132.533 14.1395 131.4 14.6553C130.263 15.1759 129.278 15.8849 128.447 16.7917C127.613 17.6986 126.965 18.7562 126.508 19.9621C126.049 21.1705 125.82 22.4636 125.82 23.8415V23.9122C125.82 25.3867 126.072 26.734 126.581 27.9518C127.085 29.1719 127.783 30.2177 128.663 31.0869C129.547 31.9584 130.583 32.632 131.78 33.1149C132.976 33.5977 134.262 33.838 135.64 33.838C137.402 33.838 138.919 33.513 140.186 32.8605C141.456 32.208 142.546 31.3365 143.467 30.2507L140.895 27.9706C140.123 28.7196 139.336 29.2873 138.542 29.6736C137.744 30.0575 136.801 30.2507 135.716 30.2507C134.288 30.2507 133.075 29.8338 132.072 28.9999C131.068 28.1661 130.447 26.9648 130.206 25.3938H144.264C144.287 25.1771 144.308 24.9651 144.318 24.7602C144.329 24.5552 144.337 24.355 144.337 24.1619C144.337 22.7863 144.143 21.4743 143.757 20.2307C143.371 18.987 142.796 17.8917 142.038 16.9495M83.9432 21.3236C83.2648 20.7324 82.4121 20.2307 81.3852 19.8208C80.3535 19.4086 79.1734 19.0341 77.8403 18.6973C76.6296 18.4075 75.6309 18.1296 74.8441 17.8634C74.0574 17.5973 73.4403 17.3146 72.9904 17.0108C72.5429 16.7116 72.2343 16.3725 72.0624 15.9979C71.8928 15.6234 71.808 15.1971 71.808 14.7095V14.6389C71.808 13.7933 72.1707 13.0796 72.8962 12.5025C73.6193 11.9207 74.6345 11.631 75.9371 11.631C77.0983 11.631 78.2454 11.8547 79.3807 12.2999C80.516 12.7474 81.6631 13.3928 82.8267 14.2384L85.2151 10.8678C83.9102 9.82905 82.5181 9.03763 81.0319 8.49588C79.5456 7.95413 77.8732 7.67854 76.0124 7.67854C74.7546 7.67854 73.5981 7.85991 72.5382 8.22265C71.4782 8.58538 70.569 9.08709 69.8129 9.72777C69.0592 10.3661 68.4656 11.141 68.0346 12.0479C67.6035 12.9524 67.3892 13.9487 67.3892 15.0369V15.1099C67.3892 16.2712 67.5753 17.2605 67.9521 18.0801C68.3266 18.9022 68.8731 19.5994 69.5892 20.1647C70.3029 20.7324 71.1885 21.2152 72.239 21.6133C73.2919 22.0114 74.4979 22.3694 75.857 22.6803C77.0418 22.9465 78.0051 23.2126 78.7447 23.4788C79.482 23.745 80.0661 24.0347 80.4878 24.348C80.9094 24.6636 81.2038 24.9957 81.3593 25.3443C81.5171 25.6953 81.5948 26.1004 81.5948 26.5621V26.6327C81.5948 27.5985 81.192 28.371 80.3794 28.9505C79.5715 29.5323 78.4762 29.822 77.103 29.822C75.5084 29.822 74.081 29.5393 72.8255 28.9717C71.6219 28.4276 70.35 27.9989 68.5316 26.5738C67.8297 26.0227 67.05 25.1865 66.3599 24.3692V29.6807C66.4329 29.7443 66.5035 29.8008 66.5624 29.8479C67.6271 30.677 69.648 32.1327 71.3769 32.7757C73.1647 33.4399 75.0396 33.772 76.9947 33.772C78.3231 33.772 79.5409 33.6048 80.6526 33.268C81.7597 32.9288 82.7089 32.4318 83.5004 31.7817C84.2918 31.1293 84.9066 30.3308 85.3494 29.3909C85.7922 28.4488 86.016 27.3865 86.016 26.204V26.131C86.016 25.0923 85.8393 24.1807 85.4883 23.3964C85.1374 22.612 84.6239 21.9219 83.9432 21.3283M98.3349 29.4051C97.8756 29.7537 97.3362 30.0293 96.7238 30.2224C96.1067 30.4156 95.4353 30.5121 94.7099 30.5121C93.6711 30.5121 92.7949 30.2695 92.0812 29.7867C91.3699 29.3038 91.0118 28.6042 91.0118 27.688V27.6149C91.0118 26.6963 91.3981 25.9732 92.1731 25.4432C92.9457 24.9086 94.0197 24.6424 95.3953 24.6424C96.2409 24.6424 97.0441 24.7154 97.8026 24.8614C98.5657 25.0051 99.2252 25.1888 99.7811 25.4055V26.4938C99.7811 27.0967 99.6539 27.6479 99.3972 28.1426C99.1452 28.6372 98.7871 29.0612 98.3302 29.4098M99.6751 31.0562V33.4117H104.023V22.0703C104.023 19.5075 103.335 17.5219 101.958 16.111C100.58 14.6954 98.4668 13.9888 95.6167 13.9888C94.0456 13.9888 92.703 14.1324 91.5936 14.4222C90.4819 14.7119 89.396 15.1005 88.3337 15.5834L89.5279 19.0977C90.3971 18.735 91.2545 18.4452 92.1001 18.2285C92.9457 18.0095 93.909 17.8988 94.9996 17.8988C96.5212 17.8988 97.6871 18.2497 98.4951 18.9517C99.303 19.6536 99.7105 20.6688 99.7105 21.9949V22.3576C98.9591 22.115 98.1794 21.9219 97.3739 21.7782C96.5636 21.6321 95.579 21.5591 94.4202 21.5591C93.2613 21.5591 92.2744 21.6863 91.3228 21.9407C90.3688 22.1951 89.5468 22.5814 88.859 23.0996C88.1688 23.6201 87.6294 24.2726 87.2432 25.0569C86.8592 25.8437 86.6637 26.767 86.6637 27.8293V27.9023C86.6637 28.8657 86.8498 29.7183 87.2243 30.4556C87.5965 31.1952 88.0958 31.81 88.7106 32.3046C89.3277 32.7993 90.0461 33.1738 90.8682 33.4282C91.6879 33.6802 92.557 33.8074 93.4756 33.8074C94.9242 33.8074 96.1561 33.5412 97.1737 33.0089C98.1889 32.4766 99.0227 31.8265 99.6751 31.0539" fill="#73A744"/>
<path d="M17.5315 21.3224C16.8531 20.7312 16.0005 20.2294 14.9711 19.8196C13.9418 19.4074 12.7594 19.0329 11.4286 18.6961C10.2179 18.4063 9.21917 18.1284 8.43246 17.8622C7.64574 17.5961 7.02862 17.3134 6.57873 17.0096C6.1312 16.7104 5.82264 16.3712 5.65069 15.9967C5.4811 15.6222 5.39866 15.1959 5.39866 14.7083V14.6376C5.39866 13.792 5.76139 13.0783 6.48451 12.5013C7.20999 11.9195 8.22518 11.6321 9.52773 11.6321C10.689 11.6321 11.8361 11.8559 12.969 12.3011C14.1067 12.7486 15.2538 13.394 16.4103 14.2396L18.8011 10.8689C17.4985 9.8302 16.1018 9.03877 14.6155 8.49702C13.1292 7.95527 11.4568 7.67969 9.5984 7.67969C8.34295 7.67969 7.18172 7.86106 6.12413 8.22379C5.06183 8.58653 4.15499 9.08824 3.39889 9.72892C2.64515 10.3672 2.05158 11.1422 1.61818 12.049C1.18714 12.9535 0.972795 13.9499 0.972795 15.0381V15.1111C0.972795 16.2723 1.16123 17.2616 1.53574 18.0813C1.91026 18.9033 2.45672 19.6005 3.17042 20.1682C3.88411 20.7359 4.76976 21.2187 5.82263 21.6168C6.87551 22.0149 8.0815 22.3729 9.43823 22.6838C10.6254 22.95 11.5864 23.2185 12.326 23.4823C13.0632 23.7485 13.645 24.0382 14.069 24.3515C14.493 24.6671 14.7827 24.9992 14.9405 25.3478C15.0983 25.6988 15.1784 26.1039 15.1784 26.5656V26.6362C15.1784 27.602 14.7733 28.3745 13.963 28.954C13.1551 29.5358 12.0622 29.8231 10.6843 29.8231C9.08962 29.8231 7.66459 29.5405 6.40678 28.9728C5.15134 28.4052 3.90767 27.5902 2.67342 26.5232L0 29.7101C1.52161 31.088 3.17513 32.1103 4.9629 32.7745C6.75068 33.4387 8.62325 33.7708 10.5806 33.7708C11.9091 33.7708 13.1292 33.6036 14.2386 33.2668C15.348 32.9276 16.2973 32.4306 17.0887 31.7805C17.8778 31.128 18.4949 30.3296 18.9401 29.3897C19.3829 28.4476 19.6066 27.3853 19.6066 26.2028V26.1298C19.6066 25.0911 19.43 24.1795 19.079 23.3951C18.7281 22.6108 18.2146 21.9206 17.5339 21.3271" fill="#156C9B"/>
<path d="M25.7566 14.2734H21.3354V33.4066H25.7566V14.2734Z" fill="#156C9B"/>
<path d="M37.6327 13.875C36.886 13.875 36.2171 13.9645 35.6282 14.1482C35.0393 14.332 34.4976 14.5816 34.0006 14.8996C33.506 15.2152 33.0726 15.5756 32.698 15.976C32.3259 16.3765 31.982 16.8099 31.6687 17.2715V14.2731H27.2476V33.4063H31.6687V22.6325C31.6687 21.1392 32.0644 19.9756 32.8535 19.1441C33.6449 18.3126 34.6742 17.8957 35.9438 17.8957C37.2134 17.8957 38.2357 18.3009 38.9423 19.1088C39.6489 19.9143 40.0022 21.0661 40.0022 22.5618V33.4086H44.4234V21.2334C44.4234 18.9863 43.8322 17.1985 42.6521 15.8724C41.472 14.5416 39.7973 13.8774 37.6303 13.8774" fill="#156C9B"/>
<path d="M61.194 22.934C61.194 23.7089 61.0409 24.4156 60.7394 25.0539C60.4379 25.6946 60.0327 26.2505 59.5263 26.7215C59.0199 27.1926 58.4216 27.5554 57.7315 27.8074C57.0437 28.0618 56.3229 28.189 55.5762 28.189C54.8296 28.189 54.1206 28.0618 53.4564 27.8074C52.7898 27.5554 52.2174 27.1926 51.7345 26.7215C51.2517 26.2505 50.8654 25.6946 50.5757 25.0539C50.2836 24.4156 50.1399 23.6948 50.1399 22.901V22.8257C50.1399 22.0295 50.2789 21.3088 50.5568 20.6704C50.8324 20.0321 51.221 19.4786 51.7157 19.0193C52.2103 18.56 52.7851 18.2043 53.4375 17.9499C54.09 17.6979 54.8037 17.5707 55.5739 17.5707C56.3441 17.5707 57.0413 17.6979 57.7291 17.9499C58.4193 18.2019 59.0175 18.5647 59.524 19.0358C60.0304 19.5068 60.4355 20.0627 60.737 20.7034C61.0385 21.3464 61.1916 22.0625 61.1916 22.8586V22.9316L61.194 22.934ZM61.1209 14.2754V17.1349C60.3719 16.2446 59.4721 15.4743 58.4216 14.8337C57.3711 14.1953 56.0356 13.875 54.415 13.875C53.3056 13.875 52.2245 14.0823 51.1739 14.4898C50.1211 14.902 49.193 15.4861 48.3827 16.2446C47.5725 17.0054 46.9271 17.9499 46.4442 19.0734C45.9614 20.197 45.7188 21.4595 45.7188 22.8586V22.9316C45.7188 24.3331 45.9614 25.5909 46.4442 26.7003C46.9294 27.8121 47.5725 28.7472 48.3827 29.5104C49.1907 30.2712 50.1163 30.8577 51.1551 31.2652C52.1938 31.6774 53.2821 31.8823 54.415 31.8823C55.9837 31.8823 57.3028 31.5549 58.3651 30.9024C59.4274 30.25 60.3578 29.4044 61.1539 28.3656V29.8613C61.1539 31.8022 60.6357 33.2696 59.597 34.2636C58.5582 35.26 57.0602 35.7593 55.1028 35.7593C53.7979 35.7593 52.5896 35.5756 51.4801 35.2152C50.3707 34.8525 49.3037 34.3579 48.2909 33.7313L46.6609 37.0148C49.1718 38.5199 52.0242 39.2737 55.2135 39.2737C56.9518 39.2737 58.4805 39.0617 59.7972 38.6377C61.1139 38.2137 62.2068 37.5683 63.0783 36.6992C64.6965 35.0786 65.5068 32.6761 65.5068 29.4868V14.2754H61.1233H61.1209Z" fill="#156C9B"/>
<path d="M25.9029 7.17188H21.1543V11.3386H25.9029V7.17188Z" fill="#156C9B"/>
<path d="M122.53 23.9329C123.521 26.7123 122.916 29.9322 120.69 32.1605C119.308 33.5455 117.539 34.2992 115.732 34.4405C115.69 34.4947 115.661 34.53 115.661 34.53C115.65 34.5018 115.633 34.4759 115.624 34.4452C113.44 34.5819 111.212 33.8281 109.544 32.1605C107.205 29.8215 106.649 26.3755 107.87 23.5066C107.264 22.7481 106.763 22.091 106.364 21.5469C104.303 25.1201 104.603 29.6755 107.269 32.9566L105.281 34.9469L104.725 34.3911L97.8354 41.2784L100.059 43.5019L106.949 36.6146L106.393 36.0587L108.352 34.0943C112.319 37.6745 118.441 37.5544 122.261 33.7315C125.564 30.4316 126.091 25.4169 123.868 21.5563C123.413 22.3642 122.968 23.158 122.527 23.9329" fill="#156C9B"/>
<path d="M117.616 19.1172C118.062 18.4435 118.599 17.8664 119.147 17.3223C115.772 15.8549 111.766 16.3142 108.793 18.705C109.723 18.9075 110.651 19.1925 111.506 19.5788C113.405 18.599 115.619 18.4482 117.619 19.1172" fill="#156C9B"/>
</svg>
