<svg width="28" height="28" viewBox="0 0 28 28" fill="none" xmlns="http://www.w3.org/2000/svg">
<mask id="mask0_16381_61873" style="mask-type:alpha" maskUnits="userSpaceOnUse" x="0" y="0" width="28" height="28">
<rect width="28" height="28" fill="#D9D9D9"/>
</mask>
<g mask="url(#mask0_16381_61873)">
<path d="M12.344 18.9602L20.1876 11.1166L18.9581 9.88714L12.344 16.5012L9.01905 13.1762L7.78958 14.4057L12.344 18.9602ZM14.0018 25.0807C12.4688 25.0807 11.028 24.7898 9.67915 24.208C8.3303 23.6262 7.15701 22.8367 6.15925 21.8394C5.16148 20.8421 4.37158 19.6693 3.78955 18.321C3.20752 16.9728 2.9165 15.5322 2.9165 13.9993C2.9165 12.4664 3.20739 11.0255 3.78917 9.6767C4.37095 8.32786 5.16049 7.15457 6.1578 6.15681C7.15512 5.15904 8.3279 4.36914 9.67614 3.78711C11.0244 3.20508 12.4649 2.91406 13.9979 2.91406C15.5308 2.91406 16.9717 3.20495 18.3205 3.78673C19.6693 4.36851 20.8426 5.15805 21.8404 6.15535C22.8381 7.15268 23.628 8.32546 24.2101 9.6737C24.7921 11.0219 25.0831 12.4625 25.0831 13.9954C25.0831 15.5283 24.7922 16.9692 24.2104 18.318C23.6287 19.6669 22.8391 20.8402 21.8418 21.8379C20.8445 22.8357 19.6717 23.6256 18.3235 24.2076C16.9753 24.7897 15.5347 25.0807 14.0018 25.0807Z" fill="#43A047"/>
</g>
</svg>
