<svg width="32" height="33" viewBox="0 0 32 33" fill="none" xmlns="http://www.w3.org/2000/svg">
<g id="Icons">
<path id="Vector" d="M8.03044 23.5564C9.16377 22.7154 10.3984 22.0513 11.7343 21.5641C13.0702 21.077 14.492 20.8334 15.9996 20.8334C17.5073 20.8334 18.9291 21.077 20.265 21.5641C21.6009 22.0513 22.8355 22.7154 23.9688 23.5564C24.7979 22.6453 25.4548 21.5906 25.9394 20.3923C26.424 19.194 26.6663 17.8966 26.6663 16.5C26.6663 13.5445 25.6274 11.0278 23.5496 8.95001C21.4719 6.87223 18.9552 5.83334 15.9996 5.83334C13.0441 5.83334 10.5274 6.87223 8.44964 8.95001C6.37186 11.0278 5.33297 13.5445 5.33297 16.5C5.33297 17.8966 5.57529 19.194 6.05991 20.3923C6.54453 21.5906 7.20137 22.6453 8.03044 23.5564ZM16 17.5C14.7827 17.5 13.7561 17.0822 12.9202 16.2465C12.0843 15.4109 11.6663 14.3844 11.6663 13.1671C11.6663 11.9497 12.0842 10.9231 12.9198 10.0872C13.7554 9.25132 14.7819 8.83337 15.9992 8.83337C17.2166 8.83337 18.2432 9.25119 19.0791 10.0868C19.915 10.9225 20.3329 11.9489 20.3329 13.1663C20.3329 14.3836 19.9151 15.4103 19.0795 16.2461C18.2439 17.082 17.2174 17.5 16 17.5ZM15.9996 29.1666C14.2407 29.1666 12.5907 28.8359 11.0497 28.1743C9.50865 27.5128 8.16805 26.6119 7.02787 25.4718C5.88772 24.3316 4.98687 22.991 4.32534 21.45C3.66379 19.909 3.33301 18.259 3.33301 16.5C3.33301 14.741 3.66379 13.091 4.32534 11.55C4.98687 10.009 5.88772 8.66842 7.02787 7.52824C8.16805 6.38809 9.50865 5.48724 11.0497 4.82571C12.5907 4.16415 14.2407 3.83337 15.9996 3.83337C17.7586 3.83337 19.4086 4.16415 20.9496 4.82571C22.4906 5.48724 23.8312 6.38809 24.9714 7.52824C26.1116 8.66842 27.0124 10.009 27.6739 11.55C28.3355 13.091 28.6663 14.741 28.6663 16.5C28.6663 18.259 28.3355 19.909 27.6739 21.45C27.0124 22.991 26.1116 24.3316 24.9714 25.4718C23.8312 26.6119 22.4906 27.5128 20.9496 28.1743C19.4086 28.8359 17.7586 29.1666 15.9996 29.1666ZM15.9996 27.1667C17.2031 27.1667 18.3633 26.9731 19.4804 26.5859C20.5975 26.1987 21.5894 25.6573 22.4561 24.9615C21.5894 24.2915 20.6103 23.7692 19.5189 23.3949C18.4274 23.0205 17.2544 22.8333 15.9996 22.8333C14.7449 22.8333 13.5697 23.0184 12.474 23.3884C11.3782 23.7585 10.4013 24.2829 9.54321 24.9615C10.4099 25.6573 11.4018 26.1987 12.5189 26.5859C13.636 26.9731 14.7962 27.1667 15.9996 27.1667ZM15.9996 15.5C16.6629 15.5 17.2176 15.277 17.6638 14.8308C18.1099 14.3846 18.333 13.8299 18.333 13.1667C18.333 12.5034 18.1099 11.9487 17.6638 11.5025C17.2176 11.0564 16.6629 10.8333 15.9996 10.8333C15.3364 10.8333 14.7817 11.0564 14.3355 11.5025C13.8894 11.9487 13.6663 12.5034 13.6663 13.1667C13.6663 13.8299 13.8894 14.3846 14.3355 14.8308C14.7817 15.277 15.3364 15.5 15.9996 15.5Z" fill="white"/>
</g>
</svg>
